<?xml version="1.0" encoding="utf-8"?>
<!-- Generator: Adobe Illustrator 23.0.1, SVG Export Plug-In . SVG Version: 6.00 Build 0)  -->
<svg version="1.1" id="Layer_1" xmlns="http://www.w3.org/2000/svg" xmlns:xlink="http://www.w3.org/1999/xlink" x="0px" y="0px"
	 viewBox="0 0 1000 1000" style="enable-background:new 0 0 1000 1000;" xml:space="preserve">
<style type="text/css">
	.st0{fill:#010101;}
</style>
<path class="st0" d="M310.5,611.4V393h11.8v34.4c1.4-1.5,2.7-3.1,3.9-4.8c9.9-20.5,30.8-33.5,53.5-33.2c27-0.8,49,9.2,61.9,33.2
	c16.7,30.3,17.6,66.8,2.6,97.9c-12,26.9-41.7,40.3-73.5,35.4c-20.1-1.7-38-13.5-47.4-31.3v86.9L310.5,611.4z M322.3,470.2l2.7,25.6
	c4.7,29.2,21.9,46.4,49,49.7c26.2,4.3,51.9-10.5,61.2-35.4c10.5-25.1,9.8-53.5-2.1-78.1c-9.9-22.2-33.4-35.2-57.5-31.8
	c-22.6,1.6-41.6,17.4-47.5,39.3C325.6,449.7,323.7,459.9,322.3,470.2L322.3,470.2z M696.7,499.9c-3.7,31.8-30.4,55.9-62.4,56.5
	c-49.7,2.5-73-30.5-76.7-68.6c-2.6-20.7,0.8-41.7,9.7-60.5c12.7-26.5,41.1-41.8,70.2-37.7c27.7,2.4,50.7,22.1,57.3,49.1
	c2.5,12,4.4,24.1,5.6,36.3H569.8c-2.4,34.5,16.1,62.3,42.4,69c32.7,8.1,60.7-6.1,70.9-37.3C685.4,498.8,689.5,497.7,696.7,499.9
	L696.7,499.9z M569.7,464h116.7c-0.7-36.8-23.6-63.5-54.7-63.8C596.7,399.7,571.2,425.3,569.7,464z M720.8,500.7h11.4
	c0.9,17.2,11.3,32.4,26.9,39.5c19.6,8.8,42.1,8.2,61.1-1.6c10.5-4.7,17-15.5,16.1-27c0.6-11.1-6.2-21.3-16.8-24.9
	c-12.6-4.7-26-7.3-38.8-11.4c-13.3-3.8-26.4-8.6-39-14.3c-20.7-10.1-21.9-49.4,1.5-61.8c24.3-13.7,54-14.2,78.7-1.2
	c15.1,8.3,23.5,25.2,21,42.3h-9.8c0-0.5-0.9-0.9-0.9-1.4c-1.2-31.3-27.5-41.1-55.7-38.3c-8.5,0.9-16.6,3.5-24.2,7.3
	c-9.3,4.3-15,14-14,24.2c0,10.2,6.5,19.3,16.1,22.7c12.3,4.5,25.4,7.4,38.1,11l30.8,8.1c14.3,4.7,24.3,17.8,25,32.8
	c2.5,16.5-6,32.8-20.9,40.3c-26.9,15.2-71.3,11.2-91.1-8.1C726.4,528.9,720.7,515,720.8,500.7L720.8,500.7z M993.6,440.3h-10.7
	c0-1.5-0.6-2.8-0.7-4c-0.4-16.6-12.3-30.6-28.6-33.7c-14.9-4.3-30.8-3.5-45.2,2.2c-11.7,3.4-19.8,14-19.9,26.2
	c-0.4,12,7.7,22.7,19.4,25.5l49,12.6c5.3,1.3,10.5,2.9,15.6,4.8c15.6,5.7,26.3,20.2,26.7,36.8c0.5,16.6-9.3,31.8-24.6,38.3
	c-23,10.5-49.4,10.7-72.6,0.7c-19.3-8.3-31.4-27.8-30.3-48.9h10.5c3.9,19,17,34.8,34.9,42.3c17.9,7.5,38.3,5.6,54.6-4.9
	c10-5.2,16-15.7,15.5-26.9c0.5-11.1-6.5-21.2-17-24.8c-12.6-4.7-26-7.2-38.8-11.4c-13.4-3.7-26.5-8.5-39.3-14.1
	c-20.2-9.9-21.8-48.9,1.2-61.3c24.7-14.3,55-14.7,80-0.9c14.4,8.6,22.3,24.8,20.2,41.4L993.6,440.3z M291,552.4
	c-8.7,3.3-18.6-0.4-22.9-8.7l-41.7-57.7l-6-8.1l-48.4,65.8c-4.1,7.9-13.4,11.6-21.8,8.5l62.3-83.6l-58-75.6c8.6-3.1,18.2,0.3,23,8.1
	l43.2,58.4l43.5-58.2c4.1-7.8,13.4-11.3,21.6-8.1l-22.5,29.9l-30.5,39.7c-3.3,3-3.6,8.1-0.6,11.4c0.2,0.2,0.4,0.4,0.6,0.6l58.1,77.5
	L291,552.4z M555.7,392.3v11.4c-32.2-2.1-60.1,22.3-62.2,54.5c-0.1,2-0.2,3.9-0.1,5.9c0,26.6,0,53.1,0,79.7v9h-11.5V393h11.4v32.7
	C507.2,401.9,528.7,393,555.7,392.3L555.7,392.3z M0.9,467.7l5.1-25.1c14-49.6,70.8-70.2,109.9-39.5c22.9,18,28.6,43.5,27.5,72.2
	H14.3c-2.1,51.3,34.9,82.3,82.3,66.5c15.6-5.7,27.3-18.7,31.2-34.8c2.5-8.1,6.6-9.4,14.2-7.1c-2.6,19.9-14.1,37.5-31.3,47.8
	c-28.8,15.7-64.4,11.2-88.3-11.3c-11.5-13-18.5-29.3-19.8-46.6c0-2.8-0.9-5.5-1.6-8.1C0.9,476.9,0.8,472.2,0.9,467.7L0.9,467.7z
	 M14.5,464.2h116.7c-0.7-37.2-24.2-63.6-55.5-63.8c-34.8-0.5-59.8,25.3-61.3,63.6L14.5,464.2z"/>
</svg>
