<svg id="Layer_1" data-name="Layer 1" xmlns="http://www.w3.org/2000/svg" xmlns:xlink="http://www.w3.org/1999/xlink" viewBox="0 0 280 300"><defs><style>.cls-1{fill:#fff;}.cls-2{fill:#539e43;}.cls-3{fill:#333;}.cls-4{fill:url(#linear-gradient);}.cls-5{mask:url(#mask);}.cls-6{fill:none;}.cls-7{fill:url(#linear-gradient-2);}.cls-8{mask:url(#mask-2);}.cls-10,.cls-11,.cls-12,.cls-13,.cls-9{fill-rule:evenodd;}.cls-9{fill:url(#linear-gradient-3);}.cls-10{fill:url(#linear-gradient-4);}.cls-11{fill:url(#linear-gradient-5);}.cls-12{fill:url(#linear-gradient-6);}.cls-13{fill:url(#linear-gradient-7);}</style><linearGradient id="linear-gradient" x1="0.86" y1="300.59" x2="0.69" y2="300.29" gradientTransform="matrix(108.99, 0, 0, -124.19, 26.54, 37452.56)" gradientUnits="userSpaceOnUse"><stop offset="0" stop-color="#41873f"/><stop offset="0.33" stop-color="#418b3d"/><stop offset="0.64" stop-color="#419637"/><stop offset="0.93" stop-color="#3fa92d"/><stop offset="1" stop-color="#3fae2a"/></linearGradient><mask id="mask" x="88.74" y="114.23" width="46.2" height="52.33" maskUnits="userSpaceOnUse"><g id="mask-3"><path id="path-2" class="cls-1" d="M113.11,114.57a2.49,2.49,0,0,0-2.48,0L90.15,126.39a2.43,2.43,0,0,0-1.22,2.14v23.68a2.52,2.52,0,0,0,1.22,2.14l20.48,11.82a2.49,2.49,0,0,0,2.48,0l20.47-11.82a2.42,2.42,0,0,0,1.22-2.14V128.53a2.53,2.53,0,0,0-1.22-2.14l-20.47-11.82Z"/></g></mask><linearGradient id="linear-gradient-2" x1="0.74" y1="300.43" x2="1.23" y2="300.74" gradientTransform="matrix(106.45, 0, 0, -124.13, 30.13, 37436.71)" gradientUnits="userSpaceOnUse"><stop offset="0.14" stop-color="#41873f"/><stop offset="0.4" stop-color="#54a044"/><stop offset="0.71" stop-color="#66b848"/><stop offset="0.91" stop-color="#6cc04a"/></linearGradient><mask id="mask-2" x="88.74" y="110.24" width="46.83" height="56.95" maskUnits="userSpaceOnUse"><g id="mask-3-2" data-name="mask-3"><path id="path-2-2" data-name="path-2" class="cls-1" d="M113.11,114.57a2.49,2.49,0,0,0-2.48,0L90.15,126.39a2.43,2.43,0,0,0-1.22,2.14v23.68a2.52,2.52,0,0,0,1.22,2.14l20.48,11.82a2.49,2.49,0,0,0,2.48,0l20.47-11.82a2.42,2.42,0,0,0,1.22-2.14V128.53a2.53,2.53,0,0,0-1.22-2.14l-20.47-11.82Z"/></g></mask><linearGradient id="linear-gradient-3" x1="-98.81" y1="164.72" x2="-57.82" y2="164.72" gradientTransform="matrix(0.92, 0, 0, -0.35, 183.84, 167.43)" gradientUnits="userSpaceOnUse"><stop offset="0.09" stop-color="#6cc04a"/><stop offset="0.29" stop-color="#66b848"/><stop offset="0.6" stop-color="#54a044"/><stop offset="0.86" stop-color="#41873f"/></linearGradient><linearGradient id="linear-gradient-4" x1="0.53" y1="300.45" x2="0.97" y2="300.45" gradientTransform="matrix(106.33, 0, 0, -124.23, 32.09, 37466.8)" xlink:href="#linear-gradient-3"/><linearGradient id="linear-gradient-5" x1="-358.84" y1="316.45" x2="-317.84" y2="316.45" gradientTransform="matrix(0.35, 0, 0, -0.81, 245.67, 409.91)" xlink:href="#linear-gradient-3"/><linearGradient id="linear-gradient-6" x1="-0.87" y1="301.12" x2="-0.01" y2="301.12" gradientTransform="matrix(55.01, 0, 0, -34.33, 135.88, 10496.19)" xlink:href="#linear-gradient-3"/><linearGradient id="linear-gradient-7" x1="0.12" y1="302.22" x2="-0.41" y2="300.48" gradientTransform="matrix(55.01, 0, 0, -34.33, 135.88, 10496.19)" xlink:href="#linear-gradient"/></defs><path class="cls-2" d="M138.83,215.87a4.25,4.25,0,0,1-2-.53l-6.47-3.84c-1-.54-.48-.73-.19-.83a12,12,0,0,0,2.92-1.31.43.43,0,0,1,.48,0l5,3a.62.62,0,0,0,.59,0l19.4-11.23a.55.55,0,0,0,.29-.54V178.18a.55.55,0,0,0-.29-.53l-19.4-11.19a.68.68,0,0,0-.59,0l-19.4,11.19a.6.6,0,0,0-.29.53V200.6a.6.6,0,0,0,.29.54l5.3,3.06c2.87,1.46,4.67-.24,4.67-1.94V180.13a.59.59,0,0,1,.58-.58h2.48a.59.59,0,0,1,.58.58v22.13c0,3.84-2.09,6.08-5.73,6.08-1.12,0-2,0-4.48-1.22l-5.1-2.92a4.1,4.1,0,0,1-2-3.55V178.23a4.1,4.1,0,0,1,2-3.55l19.4-11.23a4.36,4.36,0,0,1,4.09,0l19.4,11.23a4.11,4.11,0,0,1,2,3.55v22.42a4.11,4.11,0,0,1-2,3.55l-19.4,11.24A5.06,5.06,0,0,1,138.83,215.87Zm6-15.41c-8.51,0-10.26-3.89-10.26-7.2a.6.6,0,0,1,.59-.58h2.53a.49.49,0,0,1,.53.48c.39,2.58,1.51,3.84,6.66,3.84,4.09,0,5.84-.92,5.84-3.11,0-1.26-.49-2.19-6.86-2.82-5.3-.53-8.61-1.7-8.61-5.93,0-3.94,3.31-6.28,8.86-6.28,6.22,0,9.28,2.14,9.67,6.81a.84.84,0,0,1-.14.44.62.62,0,0,1-.39.2H150.7a.59.59,0,0,1-.54-.44c-.58-2.68-2.09-3.55-6.07-3.55-4.48,0-5,1.55-5,2.72,0,1.41.63,1.85,6.66,2.63s8.8,1.89,8.8,6.08S151,200.46,144.81,200.46Z"/><path class="cls-3" d="M78.62,128.19a2.46,2.46,0,0,0-1.26-2.14L56.74,114.18a3.1,3.1,0,0,0-1.12-.34h-.19a2.36,2.36,0,0,0-1.12.34L33.69,126.05a2.47,2.47,0,0,0-1.27,2.14l0,31.9a1.2,1.2,0,0,0,.63,1.07,1.12,1.12,0,0,0,1.22,0l12.25-7A2.49,2.49,0,0,0,47.84,152V137.09A2.46,2.46,0,0,1,49.1,135l5.21-3a2.37,2.37,0,0,1,1.26-.34,2.12,2.12,0,0,1,1.22.34l5.2,3a2.47,2.47,0,0,1,1.27,2.14V152a2.48,2.48,0,0,0,1.26,2.14l12.26,7a1.26,1.26,0,0,0,1.89-1.07l0-31.9Z"/><path class="cls-3" d="M177.74,84.27a1.38,1.38,0,0,0-1.22,0,1.28,1.28,0,0,0-.63,1.07V117a.88.88,0,0,1-1.31.78l-5.16-3a2.55,2.55,0,0,0-2.48,0l-20.62,11.92a2.46,2.46,0,0,0-1.26,2.14V152.6a2.46,2.46,0,0,0,1.26,2.14l20.62,11.92a2.55,2.55,0,0,0,2.48,0L190,154.74a2.47,2.47,0,0,0,1.27-2.14V93.32A2.49,2.49,0,0,0,190,91.13l-12.3-6.86Zm-1.9,60.5a.55.55,0,0,1-.29.54l-7.05,4.08a.7.7,0,0,1-.63,0l-7.05-4.08a.61.61,0,0,1-.3-.54V136.6a.54.54,0,0,1,.3-.53l7.05-4.09a.7.7,0,0,1,.63,0l7.05,4.09a.59.59,0,0,1,.29.53v8.17Z"/><path class="cls-3" d="M246.36,136.41a2.44,2.44,0,0,0,1.22-2.14v-5.79a2.53,2.53,0,0,0-1.22-2.14l-20.47-11.87a2.55,2.55,0,0,0-2.48,0l-20.62,11.92a2.47,2.47,0,0,0-1.27,2.14v23.78a2.47,2.47,0,0,0,1.27,2.14l20.47,11.67a2.4,2.4,0,0,0,2.43,0l12.4-6.9a1.23,1.23,0,0,0,.64-1.07,1.21,1.21,0,0,0-.64-1.07l-20.71-11.92a1.27,1.27,0,0,1-.64-1.07v-7.44a1.21,1.21,0,0,1,.64-1.07l6.47-3.7a1.19,1.19,0,0,1,1.26,0l6.47,3.7a1.26,1.26,0,0,1,.63,1.07v5.84a1.27,1.27,0,0,0,1.9,1.07l12.25-7.15Z"/><path class="cls-2" d="M224.33,135.29a.44.44,0,0,1,.49,0l3.94,2.28a.54.54,0,0,1,.24.44v4.57a.52.52,0,0,1-.24.44l-3.94,2.29a.48.48,0,0,1-.49,0L220.39,143a.52.52,0,0,1-.24-.44V138a.54.54,0,0,1,.24-.44l3.94-2.28Z"/><path id="path-2-3" data-name="path-2" class="cls-4" d="M113.11,114.57a2.49,2.49,0,0,0-2.48,0L90.15,126.39a2.43,2.43,0,0,0-1.22,2.14v23.68a2.52,2.52,0,0,0,1.22,2.14l20.48,11.82a2.49,2.49,0,0,0,2.48,0l20.47-11.82a2.42,2.42,0,0,0,1.22-2.14V128.53a2.53,2.53,0,0,0-1.22-2.14l-20.47-11.82Z"/><g class="cls-5"><path class="cls-6" d="M110.58,114.57,90.05,126.39a2.51,2.51,0,0,0-1.31,2.14v23.68a2.34,2.34,0,0,0,.63,1.56l23-39.49a2.74,2.74,0,0,0-1.84.29Z"/><path class="cls-6" d="M112.57,166.41a2.38,2.38,0,0,0,.58-.24l20.53-11.82a2.45,2.45,0,0,0,1.26-2.14V128.53a2.45,2.45,0,0,0-.73-1.7l-21.64,39.58Z"/><path class="cls-7" d="M133.63,126.39l-20.57-11.82a3.33,3.33,0,0,0-.64-.24l-23,39.49a2.63,2.63,0,0,0,.68.58l20.58,11.82a2.33,2.33,0,0,0,1.89.24l21.64-39.59a2.43,2.43,0,0,0-.53-.48Z"/></g><g class="cls-8"><path class="cls-6" d="M134.94,152.21V128.53a2.51,2.51,0,0,0-1.31-2.14l-20.57-11.82a2.16,2.16,0,0,0-.78-.29l22.52,38.47a1.06,1.06,0,0,0,.14-.54Z"/><path class="cls-6" d="M90.05,126.39a2.51,2.51,0,0,0-1.31,2.14v23.68a2.61,2.61,0,0,0,1.31,2.14l20.58,11.82a2.27,2.27,0,0,0,1.6.29l-22-40.12-.15,0Z"/><path class="cls-9" d="M109.94,110.24l-.29.15H110Z"/><path class="cls-10" d="M133.68,154.35a2.74,2.74,0,0,0,1.21-1.55l-22.56-38.52a2.45,2.45,0,0,0-1.75.29L90.15,126.34l22,40.17a3.43,3.43,0,0,0,.93-.29l20.57-11.87Z"/><path class="cls-11" d="M135.57,154l-.14-.24v.34Z"/><path class="cls-12" d="M133.68,154.35l-20.53,11.82a2.83,2.83,0,0,1-.92.29l.39.73L135.38,154v-.29l-.58-1a2.27,2.27,0,0,1-1.12,1.6Z"/><path class="cls-13" d="M133.68,154.35l-20.53,11.82a2.83,2.83,0,0,1-.92.29l.39.73L135.38,154v-.29l-.58-1a2.27,2.27,0,0,1-1.12,1.6Z"/></g></svg>